<?xml version="1.0" standalone="no"?>
<!DOCTYPE svg PUBLIC "-//W3C//DTD SVG 20010904//EN"
 "http://www.w3.org/TR/2001/REC-SVG-20010904/DTD/svg10.dtd">
<svg version="1.0" xmlns="http://www.w3.org/2000/svg"
 width="1800.000000pt" height="1695.000000pt" viewBox="0 0 1800.000000 1695.000000"
 preserveAspectRatio="xMidYMid meet">

<g transform="translate(0.000000,1695.000000) scale(0.100000,-0.100000)"
fill="#000000" stroke="none">
<path d="M10357 12802 c-18 -19 -190 -368 -469 -952 -190 -395 -211 -441 -204
-448 8 -7 39 49 197 358 213 415 452 876 484 933 15 26 32 47 39 47 22 0 1123
-314 1132 -322 2 -3 -11 -194 -30 -424 -32 -385 -60 -756 -69 -912 -13 -240
54 284 108 838 32 330 47 529 40 540 -7 11 -77 33 -631 194 -237 69 -454 134
-483 145 -64 26 -93 26 -114 3z"/>
<path d="M7521 12749 c-202 -58 -1086 -331 -1093 -338 -16 -15 164 -1501 182
-1501 4 0 6 19 4 43 -2 23 -13 143 -24 267 -17 181 -76 796 -105 1081 -4 41
-2 59 8 67 12 10 1029 320 1104 336 l30 7 123 -233 c449 -849 622 -1168 632
-1168 12 0 -34 94 -332 690 -314 623 -397 780 -414 779 -6 0 -58 -14 -115 -30z"/>
<path d="M8865 11109 c-907 -27 -1864 -344 -2655 -880 -286 -194 -480 -358
-743 -629 -268 -276 -461 -526 -656 -849 -87 -144 -204 -368 -199 -383 3 -7
46 62 98 152 180 320 363 583 573 825 113 131 386 400 512 506 1179 989 2770
1384 4312 1073 433 -87 890 -247 1288 -449 521 -265 937 -581 1367 -1036 515
-546 910 -1295 1062 -2018 53 -248 96 -611 96 -808 l0 -103 95 0 95 0 -6 78
c-25 371 -47 547 -99 802 -132 636 -403 1226 -814 1770 -132 176 -250 307
-467 520 -220 216 -289 276 -477 417 -698 521 -1478 842 -2348 967 -314 45
-598 58 -1034 45z"/>
<path d="M13584 10982 c-314 -197 -1067 -680 -1143 -734 -14 -10 -22 -20 -19
-24 8 -7 -12 -18 738 436 305 185 571 345 590 355 l35 18 68 -74 c38 -41 152
-166 255 -279 229 -252 393 -432 445 -487 l40 -41 -275 -369 c-287 -385 -597
-804 -637 -861 -13 -18 -21 -36 -18 -39 7 -6 257 308 643 807 360 465 344 444
344 461 -1 16 -114 147 -438 503 -301 331 -411 446 -427 446 -7 0 -97 -53
-201 -118z"/>
<path d="M4264 10983 c-145 -143 -794 -867 -794 -887 0 -29 1011 -1319 1018
-1298 4 12 -180 264 -646 887 -157 209 -289 385 -294 391 -12 17 48 89 395
472 166 184 323 357 348 385 l46 51 655 -392 c584 -349 738 -437 656 -372 -77
60 -1294 830 -1312 830 -2 0 -35 -30 -72 -67z"/>
<path d="M4566 8274 c-4 -9 -4 -19 -1 -22 2 -3 7 3 11 12 4 9 4 19 1 22 -2 3
-7 -3 -11 -12z"/>
<path d="M2387 7963 c-5 -8 -146 -622 -192 -838 -14 -65 -23 -125 -21 -132 8
-19 46 -16 53 4 4 10 48 222 98 473 l91 455 414 5 c455 5 438 12 -74 30 -335
12 -364 12 -369 3z"/>
<path d="M15355 7960 c-506 -18 -514 -25 -36 -30 l445 -5 88 -438 c48 -241 95
-454 103 -473 16 -40 38 -41 43 -3 3 27 -195 930 -207 941 -13 14 -180 16
-436 8z"/>
</g>
</svg>
